# xmcd
#
# Track frame offsets: 
#        150
#        15673
#        32091
#        34346
#        58229
#        78734
#        86612
#        104565
#        108432
#        133960
#        145596
#        148916
#        166052
#
# Disc length: 2386 seconds
#
# Revision: 0
# Processed by: cddbd v1.4PL0 Copyright (c) Steve Scherf et al.
# Submitted via: ExactAudioCopy v0.90b4
#
DISCID=ba09500d
DTITLE=Bobby Manriques - Another Shade Of Blue(s)
DYEAR=1900
DGENRE=Blues
TTITLE0=The Boogie Man's Cumin'
TTITLE1=Family Traditions
TTITLE2=Evocation
TTITLE3=Another Shade Of Blue
TTITLE4=Goin' Up
TTITLE5=Smokehouse (live)
TTITLE6=Devil Heart
TTITLE7=d'blues
TTITLE8=G-Blue(inspired)
TTITLE9=FT2
TTITLE10=Jump Start
TTITLE11=How We Start
TTITLE12=B2K
EXTD=
EXTT0=
EXTT1=
EXTT2=
EXTT3=
EXTT4=
EXTT5=
EXTT6=
EXTT7=
EXTT8=
EXTT9=
EXTT10=
EXTT11=
EXTT12=
PLAYORDER=
